@startuml
'https://plantuml.com/class-diagram

class Client
interface Flyweight {
    operation(extrinsicState)
}
class Flyweight1 {
    intrinsicState
    operation(extrinsicState)
}
class UnsharedFlyweight1 {
    operation(extrinsicState)
}
class FlyweightFactory {
    getFlyweight(key)
}

Client --> "flyweight" Flyweight
Client --> FlyweightFactory

Flyweight <|.. Flyweight1
Flyweight <|.. UnsharedFlyweight1

FlyweightFactory ..> "<<create &\n share>>" Flyweight1

@enduml